<?xml version="1.0" encoding="utf-8"?>
<!-- Svg Vector Icons : http://www.onlinewebfonts.com/icon -->
<!DOCTYPE svg PUBLIC "-//W3C//DTD SVG 1.1//EN" "http://www.w3.org/Graphics/SVG/1.1/DTD/svg11.dtd">
<svg version="1.1" xmlns="http://www.w3.org/2000/svg" xmlns:xlink="http://www.w3.org/1999/xlink" x="0px" y="0px" viewBox="0 0 1000 1000" enable-background="new 0 0 1000 1000" xml:space="preserve">
<metadata> Svg Vector Icons : http://www.onlinewebfonts.com/icon </metadata>
<g><path d="M166.8,225.6c0,10.6-3.9,19.8-11.6,27.6c-7.7,7.8-16.9,11.7-27.6,11.6c-11,0-20.3-3.9-27.8-11.6c-7.5-7.7-11.3-16.9-11.4-27.6c0-11,3.8-20.3,11.4-27.8c7.6-7.5,16.9-11.3,27.8-11.4c10.6,0,19.8,3.8,27.6,11.4C163,205.3,166.9,214.6,166.8,225.6z M264.8,539.2v-392c0-10.6-3.9-19.8-11.6-27.6c-7.7-7.8-16.9-11.7-27.6-11.6H49.2c-10.6,0-19.8,3.9-27.6,11.6c-7.8,7.7-11.7,16.9-11.6,27.6v392c0,10.6,3.9,19.8,11.6,27.6c7.7,7.8,16.9,11.7,27.6,11.6h176.4c10.6,0,19.8-3.9,27.6-11.6C261,559,264.9,549.8,264.8,539.2z M956.3,447.9c22.5,24.9,33.7,55.4,33.7,91.3c-0.4,31.8-12.2,59.4-35.2,82.7c-23.1,23.3-50.5,34.9-82.4,34.9H702.7c1.6,5.7,3.2,10.6,4.9,14.7c1.6,4.1,3.9,8.6,6.7,13.5c2.9,4.9,4.9,8.6,6.1,11.1c7.4,15.1,12.9,26.7,16.5,34.9c3.7,8.2,7.5,20.1,11.6,35.8c4.1,15.7,6.1,31.4,6.1,46.9c0,9.8-0.1,17.7-0.3,23.9c-0.2,6.2-1.2,15.4-3.1,27.6c-1.8,12.2-4.3,22.4-7.4,30.7c-3.1,8.2-8,17.4-14.7,27.6c-6.7,10.2-14.8,18.4-24.5,24.8c-9.6,6.3-21.9,11.6-36.8,15.9s-31.8,6.4-50.6,6.4c-10.6,0-19.8-3.9-27.6-11.6c-8.2-8.2-15.1-18.4-20.9-30.7c-5.7-12.3-9.7-22.9-11.9-31.8c-2.2-8.9-4.8-21.4-7.7-37.4c-3.7-17.1-6.4-29.5-8.2-37.1c-1.8-7.6-5.4-17.5-10.7-29.7c-5.3-12.2-11.7-22-19-29.4c-13.5-13.5-34.1-38-61.9-73.5c-20-26.1-40.6-50.8-61.9-74.1c-21.2-23.3-36.7-35.3-46.6-36.1c-10.2-0.8-19-5-26.3-12.5c-7.4-7.5-11.1-16.4-11.1-26.7V147.2c0-10.6,3.9-19.7,11.6-27.3c7.7-7.6,16.9-11.6,27.6-11.9c14.3-0.4,46.5-9.4,96.7-27c31.5-10.6,56.1-18.7,73.8-24.2c17.7-5.5,42.5-11.5,74.4-17.8c31.9-6.3,61.3-9.5,88.2-9.5h79c54.3,0.8,94.5,16.8,120.7,47.7c23.7,28.2,33.7,65.1,30,110.9c15.9,15.1,27,34.3,33.1,57.5c7,24.9,7,48.8,0,71.7c18.8,24.9,27.5,52.9,26.3,83.9c0,13.1-3.1,28.6-9.2,46.6L956.3,447.9z"/></g>
</svg>
